<?xml version="1.0" encoding="utf-8"?>
<!-- Generator: Adobe Illustrator 18.1.1, SVG Export Plug-In . SVG Version: 6.00 Build 0)  -->
<!DOCTYPE svg PUBLIC "-//W3C//DTD SVG 1.1//EN" "http://www.w3.org/Graphics/SVG/1.1/DTD/svg11.dtd">
<svg version="1.1" id="Layer_1" xmlns="http://www.w3.org/2000/svg" xmlns:xlink="http://www.w3.org/1999/xlink" x="0px" y="0px"
	 width="256px" height="256px" viewBox="0 0 256 256" style="enable-background:new 0 0 256 256;" xml:space="preserve">
<style type="text/css">
	.st0{fill:#512200;stroke:#512200;stroke-width:7.6976;stroke-miterlimit:10;}
</style>
<g>
	<g>
		<path class="st0" d="M204.2,113.5c2.5,9.9,3.9,20.4,3.9,31.3c0,1.3,0,2.5-0.1,3.8l12.4,5l10.3-8.8l7.9,9.6l-15.4,13.2l-16.1-6.7
			c-1.8,14.6-6.1,28.2-12.4,40.1l2.2-3.1l12.1,7.1l11.4-7.1l6.4,10.7l-17.1,10.7l-18.9-11.4c-14.8,23.7-37.7,38.9-63.4,38.9
			c-25.7,0-48.5-15.1-63.3-38.7l-18.6,11.2l-17.1-10.7l6.4-10.7l11.4,7.1l12.1-7.1l0.9,1.2c-5.7-11.4-9.6-24.2-11.4-38l-15.6,6.5
			l-15.4-13.2l7.8-9.6l10.3,8.8l11.9-4.8c0-1.3-0.1-2.7-0.1-4c0-10.9,1.4-21.4,3.9-31.3l-20.1-0.8l-8.8-18.5l11-5.4l5.8,12.3
			l13.9,0.7l0.2,4.1c8.3-25.5,24.6-45.8,45-55.9c0.4-7.8,6.7-14.1,14.4-14.1h33.7c8,0,14.5,6.6,14.5,14.8c0,0.4-0.1,0.7-0.1,1
			c19.1,10.8,34.3,30.8,42.1,55.6l0.3-5.6l13.9-0.7l5.8-12.3l11,5.4l-8.8,18.5L204.2,113.5z"/>
		<polygon class="st0" points="168.2,22.8 166.6,27.2 164.2,28.3 159,29.8 154.7,32.5 148.6,35.9 148.6,32.5 155.5,27.5 160.5,25.9 
			164.8,22.8 167.4,17.6 172.3,15.9 170.9,20.7 		"/>
		<polygon class="st0" points="99.1,29.8 94,28.3 91.5,27.2 89.9,22.8 87.2,20.7 85.9,15.9 90.8,17.6 93.3,22.8 97.7,25.9 
			102.7,27.5 109.5,32.5 109.5,35.9 103.4,32.5 		"/>
	</g>
</g>
<g>
</g>
<g>
</g>
<g>
</g>
<g>
</g>
<g>
</g>
<g>
</g>
<g>
</g>
<g>
</g>
<g>
</g>
<g>
</g>
<g>
</g>
<g>
</g>
<g>
</g>
<g>
</g>
<g>
</g>
</svg>
