<svg xmlns="http://www.w3.org/2000/svg" width="256" height="256" viewBox="0 0 256 256"><style type="text/css">.st0{fill:#512200;stroke:#512200;stroke-width:7.6976;stroke-miterlimit:10;}</style><path class="st0" d="M204.2 113.5c2.5 9.9 3.9 20.4 3.9 31.3 0 1.3 0 2.5-.1 3.8l12.4 5 10.3-8.8 7.9 9.6-15.4 13.2-16.1-6.7c-1.8 14.6-6.1 28.2-12.4 40.1l2.2-3.1 12.1 7.1 11.4-7.1 6.4 10.7-17.1 10.7-18.9-11.4c-14.8 23.7-37.7 38.9-63.4 38.9-25.7 0-48.5-15.1-63.3-38.7l-18.6 11.2-17.1-10.7 6.4-10.7 11.4 7.1 12.1-7.1.9 1.2c-5.7-11.4-9.6-24.2-11.4-38l-15.6 6.5-15.4-13.2 7.8-9.6 10.3 8.8 11.9-4.8-.1-4c0-10.9 1.4-21.4 3.9-31.3l-20.1-.8-8.8-18.5 11-5.4 5.8 12.3 13.9.7.2 4.1c8.3-25.5 24.6-45.8 45-55.9.4-7.8 6.7-14.1 14.4-14.1h33.7c8 0 14.5 6.6 14.5 14.8 0 .4-.1.7-.1 1 19.1 10.8 34.3 30.8 42.1 55.6l.3-5.6 13.9-.7 5.8-12.3 11 5.4-8.8 18.5-20.2.9zM168.2 22.8l-1.6 4.4-2.4 1.1-5.2 1.5-4.3 2.7-6.1 3.4v-3.4l6.9-5 5-1.6 4.3-3.1 2.6-5.2 4.9-1.7-1.4 4.8zM99.1 29.8l-5.1-1.5-2.5-1.1-1.6-4.4-2.7-2.1-1.3-4.8 4.9 1.7 2.5 5.2 4.4 3.1 5 1.6 6.8 5v3.4l-6.1-3.4z"/></svg>